<?xml version="1.0" encoding="utf-8" ?>
<svg xmlns="http://www.w3.org/2000/svg" xmlns:xlink="http://www.w3.org/1999/xlink" width="107" height="32">
	<path fill="#3893BC" transform="translate(21.6567 23.992)" d="M0 0L4.5874634 7.9969964L8.9467354 0.010635247L0 0"/>
	<path fill="#2F74A2" transform="translate(26.2441 24.0023)" d="M0 7.9866567L8.9468336 7.9976859L4.3592725 0L0 7.9866567"/>
	<path fill="#3893BC" transform="translate(7.89486 0)" d="M8.9467354 0.010930643L0 0L0 0.00059084542L4.5870709 7.9977841L8.9467354 0.010930643"/>
	<path fill="#2F74A2" transform="translate(12.4819 0.0109308)" d="M4.3596649 0L0 7.9868536L8.9467354 7.9969964L4.3596649 0"/>
	<path fill="#2F74A2" transform="translate(17.0695 8.00812)" d="M8.9467354 7.997292L4.3596649 0L0 7.9863615L8.9467354 7.997292"/>
	<path fill="#3893BC" transform="translate(12.482 7.99749)" d="M0 0L4.5870709 7.9969964L8.9467354 0.010635247L0 0"/>
	<path fill="#3893BC" transform="translate(17.0694 15.9945)" d="M0 0L4.5869727 7.997489L8.9467354 0.01122607L0 0"/>
	<path fill="#2F74A2" transform="translate(21.6566 16.0054)" d="M4.3596649 0L4.3596649 0.00068930566L4.3596649 0L0 7.9868536L8.9467354 7.9968982L4.3596649 0"/>
	<path fill="#AA2A2E" transform="translate(15.8981 20.3109)" d="M0 0L2.2232437 11.669102L4.4642439 7.7831106L0 0"/>
	<path fill="#C62A2D" transform="translate(9.17424 20.3109)" d="M0 11.657974L8.9473238 11.669102L6.7239828 0L0 11.657974"/>
	<path fill="#1B1714" transform="translate(0 8.20241)" d="M4.4819031 0L0 7.7714906L0 7.7719827L4.4819031 0"/>
	<path fill="#AA2A2E" transform="translate(0 11.6697)" d="M8.9463434 4.3156347L8.9463434 4.3156347L11.435058 0L0 4.303916L11.424561 8.6362915L8.9463434 4.3156347"/>
	<path fill="#C62A2D" transform="translate(0 15.9739)" d="M0 0L0 0.0013786113L6.9423633 12.104358L11.424953 4.332375L0 0"/>
	<path fill="#C62A2D" transform="translate(0 3.88767)" d="M6.9706173 0L6.9706173 0L0 12.086239L11.43545 7.7820272L6.9706173 0"/>
	<path fill="#3C8D44" transform="translate(31.6504 11.6943)" d="M11.435548 4.3310952L11.435548 4.3306026L0.011085873 0L2.4893029 4.3202629L0 8.6363897L11.435548 4.3319812L11.435548 4.3310952"/>
	<path fill="#3F9B46" transform="translate(31.6613 3.92184)" d="M4.4824915 0L4.4824915 0L0 7.7727709L11.425051 12.103374L4.4824915 0"/>
	<path fill="#3F9B46" transform="translate(31.6504 16.0263)" d="M4.4647346 12.085943L4.4647346 12.085943L11.43545 0L0 4.3042116L4.4647346 12.085943"/>
	<path fill="#3C8D44" transform="translate(22.7234 0.0206795)" d="M0 3.8859913L4.4641461 11.669003L2.2414911 0L0 3.8859913"/>
	<path fill="#3F9B46" transform="translate(24.9645 0.0206795)" d="M8.9469318 0.010339797L8.9469318 0.010339797L0 0L2.2233417 11.669003L8.9469318 0.011127592L8.9469318 0.010339797"/>
	<path fill="#0E0D0E" transform="translate(50.941 9.7327)" d="M0 6.2015152C0 2.3578677 2.9608912 0 6.3756137 0C7.9943376 0 9.5535116 0.43594557 10.540541 1.1886828L10.540541 3.9229193C9.5929499 3.1105065 8.3296585 2.5361063 6.9086151 2.5361063C4.9149361 2.5361063 3.3951015 3.8239527 3.3951015 6.2015152C3.3951015 8.559186 4.9149361 9.8668261 6.9086151 9.8668261C8.3296585 9.8668261 9.5929499 9.2922287 10.540541 8.4801111L10.540541 11.21425C9.5535116 11.967085 7.9943376 12.402932 6.3756137 12.402932C2.9608912 12.402932 0 10.045163 0 6.2015152"/>
	<path fill="#0E0D0E" transform="translate(62.7455 13.0809)" d="M4.973897 2.1796293C3.8882728 2.1796293 3.0592899 3.0316286 3.0592899 4.5176053C3.0592899 6.003582 3.8882728 6.8555813 4.973897 6.8555813C6.0595212 6.8555813 6.8885036 6.003582 6.8885036 4.5176053C6.8885036 3.0316286 6.0595212 2.1796293 4.973897 2.1796293ZM7.0268312 8.7971983L6.9479551 7.5885253C6.2175674 8.6188612 4.934557 9.034915 3.9475279 9.034915C1.6577694 9.034915 0 7.1723728 0 4.5176053C0 1.8823355 1.6577694 0 3.9475279 0C4.934557 0 6.2175674 0.41615227 6.9479551 1.4464885L7.0268312 0.23801228L9.8492966 0.23801228L9.8492966 8.7971983L7.0268312 8.7971983L7.0268312 8.7971983Z"/>
	<path fill="#0E0D0E" transform="translate(74.6871 13.0809)" d="M3.0596826 4.5176053L3.0596826 8.7971983L0 8.7971983L0 0.23801228L2.8621986 0.23801228L2.9607935 1.7437823C3.3951015 0.79261935 4.5400791 0 5.9807439 0L5.9807439 2.8532917C4.4806275 2.3778579 3.0596826 3.0514219 3.0596826 4.5176053"/>
	<path fill="#0E0D0E" transform="translate(81.9511 9.99031)" d="M0 6.3995471L0 0L3.2370553 0L3.2370553 6.2211118C3.2370553 8.3214693 4.0662341 9.4506741 5.763638 9.4506741C7.4808583 9.4506741 8.3103323 8.3214693 8.3103323 6.2211118L8.3103323 0L11.448694 0L11.448694 6.3995471C11.448694 10.42163 8.9215221 12.224693 5.7241998 12.224693C2.5463016 12.224693 0 10.42163 0 6.3995471"/>
	<path fill="#0E0D0E" transform="translate(94.4063 9.99031)" d="M4.2636204 5.8051562L0.23741263 0L3.8692403 0L6.316947 3.7644742L8.803895 0L12.356257 0L8.3300505 5.7853632L12.593671 11.887814L8.9618435 11.887814L6.2767234 7.8063502L3.553344 11.887814L0 11.887814L4.2636204 5.8051562"/>
</svg>
